<svg width="750" height="287" viewBox="0 0 750 287" fill="none" xmlns="http://www.w3.org/2000/svg">
<path d="M-27.957 235C-13.8682 199.94 21.7553 141.313 98.8421 188.067C204.731 252.289 246.653 124.275 365.993 124.275C491.3 124.275 523.495 226.159 632.393 216.562C741.291 206.965 777.922 76.8794 794 59" stroke="#FF8E5E" stroke-dasharray="5 5"/>
<path d="M763.177 53C735.564 111.489 668.909 343.387 435.402 184.182C201.894 24.9773 9.44775 195.88 -11.5176 241" stroke="#6A6968" stroke-width="3"/>
<path d="M-67 209.309C-52.8918 174.127 15.1593 125.208 92.8371 125.208C186.947 125.208 239.23 285 352.759 285C466.288 285 548.448 139.505 616.167 79.7935C683.886 20.0817 739.157 8.72808 775.506 2" stroke="#FF8E5E" stroke-width="3"/>
</svg>
